<?xml version="1.0" encoding="UTF-8" standalone="no"?>
<svg height="100%" stroke-miterlimit="10" style="fill-rule:nonzero;clip-rule:evenodd;stroke-linecap:round;stroke-linejoin:round;" version="1.1" viewBox="0 0 24 24" width="100%" xml:space="preserve" xmlns="http://www.w3.org/2000/svg" xmlns:xlink="http://www.w3.org/1999/xlink">
<defs/>
<g id="Untitled">
<path d="M2.25 7.125C2.25 6.504 2.754 6 3.375 6L9.375 6C9.996 6 10.5 6.504 10.5 7.125L10.5 10.875C10.5 11.496 9.996 12 9.375 12L3.375 12C2.75368 12 2.25 11.4963 2.25 10.875L2.25 7.125ZM14.25 8.625C14.25 8.004 14.754 7.5 15.375 7.5L20.625 7.5C21.246 7.5 21.75 8.004 21.75 8.625L21.75 16.875C21.75 17.496 21.246 18 20.625 18L15.375 18C14.7537 18 14.25 17.4963 14.25 16.875L14.25 8.625ZM3.75 16.125C3.75 15.504 4.254 15 4.875 15L10.125 15C10.746 15 11.25 15.504 11.25 16.125L11.25 18.375C11.25 18.996 10.746 19.5 10.125 19.5L4.875 19.5C4.25368 19.5 3.75 18.9963 3.75 18.375C3.75 18.375 3.75 16.125 3.75 16.125Z" fill="none" opacity="1" stroke="#65b3ae" stroke-linecap="butt" stroke-linejoin="round" stroke-width="1.5"/>
</g>
</svg>
